<svg xmlns="http://www.w3.org/2000/svg" viewBox="0 0 1024 1024" role="img" aria-label="Whirlpool app icon">
  <defs>
    <linearGradient id="bg" x1="0%" y1="0%" x2="100%" y2="100%">
      <stop offset="0%" stop-color="#0B1224"/>
      <stop offset="50%" stop-color="#060A14"/>
      <stop offset="100%" stop-color="#050610"/>
    </linearGradient>
    <linearGradient id="accent" x1="0%" y1="20%" x2="100%" y2="80%">
      <stop offset="0%" stop-color="#22D3EE"/>
      <stop offset="55%" stop-color="#3B82F6"/>
      <stop offset="100%" stop-color="#A78BFA"/>
    </linearGradient>
    <filter id="glow" x="-30%" y="-30%" width="160%" height="160%">
      <feGaussianBlur stdDeviation="10" result="b"/>
      <feColorMatrix in="b" type="matrix"
        values="1 0 0 0 0
                0 1 0 0 0
                0 0 1 0 0
                0 0 0 .55 0" result="g"/>
      <feMerge>
        <feMergeNode in="g"/>
        <feMergeNode in="SourceGraphic"/>
      </feMerge>
    </filter>
  </defs>

  <!-- Rounded background -->
  <rect x="64" y="64" width="896" height="896" rx="200" ry="200" fill="url(#bg)"/>

  <!-- Terminal window -->
  <g transform="translate(152, 240)">
    <rect x="0" y="0" width="720" height="520" rx="56" ry="56" fill="#0A0F1E" stroke="#101B3A" stroke-width="10"/>
    <rect x="0" y="0" width="720" height="98" rx="56" ry="56" fill="#0E1630"/>
    <rect x="0" y="52" width="720" height="46" fill="#0E1630"/>
    <circle cx="68" cy="50" r="14" fill="#FF5F57"/>
    <circle cx="112" cy="50" r="14" fill="#FEBC2E"/>
    <circle cx="156" cy="50" r="14" fill="#28C840"/>

    <!-- Prompt + swirl mark -->
    <g transform="translate(64, 168)">
      <path d="M 0 64 C 34 18 86 6 138 18 C 192 30 232 72 236 126 C 240 182 198 232 140 242 C 82 252 28 220 12 166"
            fill="none" stroke="url(#accent)" stroke-width="28" stroke-linecap="round" stroke-linejoin="round" filter="url(#glow)"/>
      <path d="M 182 96 C 156 74 116 76 96 100 C 76 126 84 162 116 176 C 146 190 176 172 182 146"
            fill="none" stroke="url(#accent)" stroke-width="22" stroke-linecap="round" stroke-linejoin="round" opacity=".9"/>
      <circle cx="132" cy="138" r="14" fill="#E0F2FE" opacity=".95"/>

      <text x="280" y="90" font-family="ui-monospace, SFMono-Regular, Menlo, Monaco, Consolas, 'Liberation Mono', 'Courier New', monospace"
            font-size="56" fill="#E5E7EB" opacity=".95">$</text>
      <text x="340" y="90" font-family="ui-monospace, SFMono-Regular, Menlo, Monaco, Consolas, 'Liberation Mono', 'Courier New', monospace"
            font-size="56" fill="#93C5FD" opacity=".98">whirlpool</text>
      <rect x="340" y="112" width="330" height="10" rx="5" fill="#93C5FD" opacity=".25"/>
    </g>
  </g>
</svg>
